<svg id="visual" viewBox="0 0 1920 1080" width="1920" height="1080" xmlns="http://www.w3.org/2000/svg" xmlns:xlink="http://www.w3.org/1999/xlink" version="1.1"><rect x="0" y="0" width="1920" height="1080" fill="#FFFFFF"></rect><defs><linearGradient id="grad1_0" x1="43.8%" y1="0%" x2="100%" y2="100%"><stop offset="14.444444444444446%" stop-color="#fbae3c" stop-opacity="1"></stop><stop offset="85.55555555555554%" stop-color="#fbae3c" stop-opacity="1"></stop></linearGradient></defs><defs><linearGradient id="grad1_1" x1="43.8%" y1="0%" x2="100%" y2="100%"><stop offset="14.444444444444446%" stop-color="#fbae3c" stop-opacity="1"></stop><stop offset="85.55555555555554%" stop-color="#ffc270" stop-opacity="1"></stop></linearGradient></defs><defs><linearGradient id="grad1_2" x1="43.8%" y1="0%" x2="100%" y2="100%"><stop offset="14.444444444444446%" stop-color="#ffd69f" stop-opacity="1"></stop><stop offset="85.55555555555554%" stop-color="#ffc270" stop-opacity="1"></stop></linearGradient></defs><defs><linearGradient id="grad1_3" x1="43.8%" y1="0%" x2="100%" y2="100%"><stop offset="14.444444444444446%" stop-color="#ffd69f" stop-opacity="1"></stop><stop offset="85.55555555555554%" stop-color="#ffeacf" stop-opacity="1"></stop></linearGradient></defs><defs><linearGradient id="grad1_4" x1="43.8%" y1="0%" x2="100%" y2="100%"><stop offset="14.444444444444446%" stop-color="#ffffff" stop-opacity="1"></stop><stop offset="85.55555555555554%" stop-color="#ffeacf" stop-opacity="1"></stop></linearGradient></defs><defs><linearGradient id="grad2_0" x1="0%" y1="0%" x2="56.3%" y2="100%"><stop offset="14.444444444444446%" stop-color="#fbae3c" stop-opacity="1"></stop><stop offset="85.55555555555554%" stop-color="#fbae3c" stop-opacity="1"></stop></linearGradient></defs><defs><linearGradient id="grad2_1" x1="0%" y1="0%" x2="56.3%" y2="100%"><stop offset="14.444444444444446%" stop-color="#ffc270" stop-opacity="1"></stop><stop offset="85.55555555555554%" stop-color="#fbae3c" stop-opacity="1"></stop></linearGradient></defs><defs><linearGradient id="grad2_2" x1="0%" y1="0%" x2="56.3%" y2="100%"><stop offset="14.444444444444446%" stop-color="#ffc270" stop-opacity="1"></stop><stop offset="85.55555555555554%" stop-color="#ffd69f" stop-opacity="1"></stop></linearGradient></defs><defs><linearGradient id="grad2_3" x1="0%" y1="0%" x2="56.3%" y2="100%"><stop offset="14.444444444444446%" stop-color="#ffeacf" stop-opacity="1"></stop><stop offset="85.55555555555554%" stop-color="#ffd69f" stop-opacity="1"></stop></linearGradient></defs><defs><linearGradient id="grad2_4" x1="0%" y1="0%" x2="56.3%" y2="100%"><stop offset="14.444444444444446%" stop-color="#ffeacf" stop-opacity="1"></stop><stop offset="85.55555555555554%" stop-color="#ffffff" stop-opacity="1"></stop></linearGradient></defs><g transform="translate(1920, 0)"><path d="M0 972C-78.4 979.5 -156.9 987 -216.3 947.6C-275.7 908.3 -316.2 822 -375.7 780.2C-435.3 738.5 -514 741.2 -563 706C-612 670.8 -631.3 597.7 -684.1 545.6C-736.9 493.4 -823.1 462.2 -835.2 402.2C-847.3 342.2 -785.1 253.4 -795.5 181.6C-806 109.7 -889 54.9 -972 0L0 0Z" fill="#fff5e7"></path><path d="M0 777.6C-62.7 783.6 -125.5 789.6 -173 758.1C-220.6 726.6 -252.9 657.6 -300.6 624.2C-348.3 590.8 -411.2 592.9 -450.4 564.8C-489.6 536.6 -505.1 478.2 -547.3 436.4C-589.5 394.7 -658.5 369.8 -668.2 321.8C-677.8 273.8 -628.1 202.7 -636.4 145.3C-644.8 87.8 -711.2 43.9 -777.6 0L0 0Z" fill="#ffe0b7"></path><path d="M0 583.2C-47.1 587.7 -94.1 592.2 -129.8 568.6C-165.4 545 -189.7 493.2 -225.4 468.1C-261.2 443.1 -308.4 444.7 -337.8 423.6C-367.2 402.5 -378.8 358.6 -410.5 327.3C-442.1 296 -493.9 277.3 -501.1 241.3C-508.4 205.3 -471.1 152 -477.3 108.9C-483.6 65.8 -533.4 32.9 -583.2 0L0 0Z" fill="#ffcc88"></path><path d="M0 388.8C-31.4 391.8 -62.7 394.8 -86.5 379.1C-110.3 363.3 -126.5 328.8 -150.3 312.1C-174.1 295.4 -205.6 296.5 -225.2 282.4C-244.8 268.3 -252.5 239.1 -273.6 218.2C-294.8 197.4 -329.3 184.9 -334.1 160.9C-338.9 136.9 -314 101.4 -318.2 72.6C-322.4 43.9 -355.6 21.9 -388.8 0L0 0Z" fill="#ffb857"></path><path d="M0 194.4C-15.7 195.9 -31.4 197.4 -43.3 189.5C-55.1 181.7 -63.2 164.4 -75.1 156C-87.1 147.7 -102.8 148.2 -112.6 141.2C-122.4 134.2 -126.3 119.5 -136.8 109.1C-147.4 98.7 -164.6 92.4 -167 80.4C-169.5 68.4 -157 50.7 -159.1 36.3C-161.2 21.9 -177.8 11 -194.4 0L0 0Z" fill="#fbae3c"></path></g><g transform="translate(0, 1080)"><path d="M0 -972C70.5 -946.4 141.1 -920.9 203.6 -892.1C266.1 -863.2 320.6 -831.1 393.5 -817.2C466.5 -803.2 557.9 -807.5 606 -759.9C654.2 -712.4 659 -613 670 -534.3C681.1 -455.7 698.4 -397.7 710 -341.9C721.6 -286.1 727.5 -232.4 770.2 -175.8C812.9 -119.2 892.5 -59.6 972 0L0 0Z" fill="#fff5e7"></path><path d="M0 -777.6C56.4 -757.2 112.9 -736.7 162.9 -713.6C212.9 -690.6 256.5 -664.9 314.8 -653.7C373.2 -642.6 446.3 -646 484.8 -608C523.3 -569.9 527.2 -490.4 536 -427.5C544.9 -364.5 558.7 -318.2 568 -273.5C577.2 -228.9 582 -185.9 616.2 -140.6C650.3 -95.3 714 -47.7 777.6 0L0 0Z" fill="#ffe0b7"></path><path d="M0 -583.2C42.3 -567.9 84.7 -552.5 122.2 -535.2C159.7 -517.9 192.4 -498.7 236.1 -490.3C279.9 -481.9 334.7 -484.5 363.6 -456C392.5 -427.4 395.4 -367.8 402 -320.6C408.6 -273.4 419 -238.6 426 -205.1C432.9 -171.7 436.5 -139.5 462.1 -105.5C487.8 -71.5 535.5 -35.7 583.2 0L0 0Z" fill="#ffcc88"></path><path d="M0 -388.8C28.2 -378.6 56.4 -368.4 81.4 -356.8C106.4 -345.3 128.2 -332.4 157.4 -326.9C186.6 -321.3 223.2 -323 242.4 -304C261.7 -285 263.6 -245.2 268 -213.7C272.4 -182.3 279.3 -159.1 284 -136.8C288.6 -114.4 291 -93 308.1 -70.3C325.2 -47.7 357 -23.8 388.8 0L0 0Z" fill="#ffb857"></path><path d="M0 -194.4C14.1 -189.3 28.2 -184.2 40.7 -178.4C53.2 -172.6 64.1 -166.2 78.7 -163.4C93.3 -160.6 111.6 -161.5 121.2 -152C130.8 -142.5 131.8 -122.6 134 -106.9C136.2 -91.1 139.7 -79.5 142 -68.4C144.3 -57.2 145.5 -46.5 154 -35.2C162.6 -23.8 178.5 -11.9 194.4 0L0 0Z" fill="#fbae3c"></path></g></svg>