<svg id="visual" viewBox="0 0 1920 1080" width="1920" height="1080" xmlns="http://www.w3.org/2000/svg" xmlns:xlink="http://www.w3.org/1999/xlink" version="1.1"><rect x="0" y="0" width="1920" height="1080" fill="#eeeeee"></rect><path d="M702 0L698.5 16.3C695 32.7 688 65.3 673.7 98C659.3 130.7 637.7 163.3 640 196.2C642.3 229 668.7 262 684.8 294.8C701 327.7 707 360.3 693.2 393C679.3 425.7 645.7 458.3 631.5 491C617.3 523.7 622.7 556.3 621 589C619.3 621.7 610.7 654.3 601.3 687C592 719.7 582 752.3 599.5 785.2C617 818 662 851 660.8 883.8C659.7 916.7 612.3 949.3 602.5 982C592.7 1014.7 620.3 1047.3 634.2 1063.7L648 1080L0 1080L0 1063.7C0 1047.3 0 1014.7 0 982C0 949.3 0 916.7 0 883.8C0 851 0 818 0 785.2C0 752.3 0 719.7 0 687C0 654.3 0 621.7 0 589C0 556.3 0 523.7 0 491C0 458.3 0 425.7 0 393C0 360.3 0 327.7 0 294.8C0 262 0 229 0 196.2C0 163.3 0 130.7 0 98C0 65.3 0 32.7 0 16.3L0 0Z" fill="#3b1882"></path><path d="M541 0L542.8 16.3C544.7 32.7 548.3 65.3 536.5 98C524.7 130.7 497.3 163.3 482.8 196.2C468.3 229 466.7 262 480.7 294.8C494.7 327.7 524.3 360.3 519.2 393C514 425.7 474 458.3 456 491C438 523.7 442 556.3 442.5 589C443 621.7 440 654.3 444.5 687C449 719.7 461 752.3 477.2 785.2C493.3 818 513.7 851 523.8 883.8C534 916.7 534 949.3 532.5 982C531 1014.7 528 1047.3 526.5 1063.7L525 1080L0 1080L0 1063.7C0 1047.3 0 1014.7 0 982C0 949.3 0 916.7 0 883.8C0 851 0 818 0 785.2C0 752.3 0 719.7 0 687C0 654.3 0 621.7 0 589C0 556.3 0 523.7 0 491C0 458.3 0 425.7 0 393C0 360.3 0 327.7 0 294.8C0 262 0 229 0 196.2C0 163.3 0 130.7 0 98C0 65.3 0 32.7 0 16.3L0 0Z" fill="#8e0068"></path><path d="M327 0L325.2 16.3C323.3 32.7 319.7 65.3 314.2 98C308.7 130.7 301.3 163.3 303.7 196.2C306 229 318 262 323 294.8C328 327.7 326 360.3 321.8 393C317.7 425.7 311.3 458.3 324.5 491C337.7 523.7 370.3 556.3 380 589C389.7 621.7 376.3 654.3 355.8 687C335.3 719.7 307.7 752.3 316.3 785.2C325 818 370 851 382.3 883.8C394.7 916.7 374.3 949.3 359.5 982C344.7 1014.7 335.3 1047.3 330.7 1063.7L326 1080L0 1080L0 1063.7C0 1047.3 0 1014.7 0 982C0 949.3 0 916.7 0 883.8C0 851 0 818 0 785.2C0 752.3 0 719.7 0 687C0 654.3 0 621.7 0 589C0 556.3 0 523.7 0 491C0 458.3 0 425.7 0 393C0 360.3 0 327.7 0 294.8C0 262 0 229 0 196.2C0 163.3 0 130.7 0 98C0 65.3 0 32.7 0 16.3L0 0Z" fill="#b60045"></path><path d="M192 0L189.5 16.3C187 32.7 182 65.3 178.3 98C174.7 130.7 172.3 163.3 166.3 196.2C160.3 229 150.7 262 155.3 294.8C160 327.7 179 360.3 196.7 393C214.3 425.7 230.7 458.3 222 491C213.3 523.7 179.7 556.3 163.2 589C146.7 621.7 147.3 654.3 151.8 687C156.3 719.7 164.7 752.3 166.5 785.2C168.3 818 163.7 851 170.2 883.8C176.7 916.7 194.3 949.3 196.8 982C199.3 1014.7 186.7 1047.3 180.3 1063.7L174 1080L0 1080L0 1063.7C0 1047.3 0 1014.7 0 982C0 949.3 0 916.7 0 883.8C0 851 0 818 0 785.2C0 752.3 0 719.7 0 687C0 654.3 0 621.7 0 589C0 556.3 0 523.7 0 491C0 458.3 0 425.7 0 393C0 360.3 0 327.7 0 294.8C0 262 0 229 0 196.2C0 163.3 0 130.7 0 98C0 65.3 0 32.7 0 16.3L0 0Z" fill="#c40909"></path></svg>