<svg id="visual" viewBox="0 0 1920 1080" width="1920" height="1080" xmlns="http://www.w3.org/2000/svg" xmlns:xlink="http://www.w3.org/1999/xlink" version="1.1"><rect x="0" y="0" width="1920" height="1080" fill="#FF6F61"></rect><g fill="none" stroke="#FFFFFF" stroke-width="7"><circle r="56" cx="229" cy="135"></circle><circle r="2" cx="1403" cy="790"></circle><circle r="25" cx="1207" cy="116"></circle><circle r="43" cx="1571" cy="895"></circle><circle r="2" cx="607" cy="490"></circle><circle r="16" cx="947" cy="462"></circle><circle r="5" cx="317" cy="1021"></circle><circle r="13" cx="457" cy="667"></circle><circle r="29" cx="1340" cy="1063"></circle><circle r="18" cx="175" cy="682"></circle><circle r="8" cx="776" cy="694"></circle><circle r="48" cx="570" cy="284"></circle><circle r="25" cx="1576" cy="633"></circle><circle r="48" cx="1547" cy="278"></circle><circle r="42" cx="1385" cy="85"></circle><circle r="5" cx="784" cy="272"></circle><circle r="22" cx="401" cy="840"></circle><circle r="44" cx="1190" cy="684"></circle><circle r="6" cx="1297" cy="237"></circle><circle r="18" cx="445" cy="59"></circle><circle r="31" cx="1341" cy="590"></circle><circle r="41" cx="740" cy="1050"></circle><circle r="45" cx="1875" cy="680"></circle><circle r="30" cx="60" cy="458"></circle><circle r="39" cx="1591" cy="504"></circle><circle r="6" cx="1283" cy="463"></circle><circle r="40" cx="918" cy="775"></circle><circle r="52" cx="674" cy="212"></circle><circle r="32" cx="408" cy="510"></circle><circle r="23" cx="1167" cy="398"></circle><circle r="39" cx="209" cy="363"></circle><circle r="47" cx="109" cy="36"></circle><circle r="47" cx="122" cy="1067"></circle><circle r="7" cx="1594" cy="172"></circle><circle r="32" cx="139" cy="885"></circle><circle r="8" cx="566" cy="169"></circle><circle r="33" cx="101" cy="275"></circle><circle r="30" cx="643" cy="961"></circle><circle r="17" cx="1842" cy="934"></circle><circle r="35" cx="733" cy="456"></circle><circle r="46" cx="1792" cy="547"></circle><circle r="25" cx="663" cy="26"></circle><circle r="27" cx="1028" cy="82"></circle><circle r="19" cx="1771" cy="83"></circle><circle r="29" cx="1424" cy="262"></circle><circle r="48" cx="1763" cy="355"></circle><circle r="43" cx="1613" cy="1041"></circle><circle r="43" cx="335" cy="224"></circle><circle r="14" cx="133" cy="559"></circle><circle r="49" cx="594" cy="658"></circle><circle r="45" cx="1729" cy="1063"></circle><circle r="9" cx="1074" cy="531"></circle><circle r="53" cx="1885" cy="141"></circle><circle r="1" cx="530" cy="814"></circle><circle r="34" cx="307" cy="593"></circle><circle r="42" cx="1113" cy="280"></circle><circle r="14" cx="1092" cy="826"></circle><circle r="13" cx="812" cy="919"></circle><circle r="1" cx="1736" cy="802"></circle><circle r="34" cx="349" cy="371"></circle><circle r="20" cx="885" cy="624"></circle><circle r="16" cx="979" cy="982"></circle><circle r="23" cx="862" cy="1040"></circle><circle r="9" cx="32" cy="942"></circle><circle r="54" cx="1445" cy="512"></circle><circle r="16" cx="1280" cy="956"></circle><circle r="28" cx="331" cy="38"></circle><circle r="51" cx="1543" cy="6"></circle><circle r="8" cx="255" cy="876"></circle><circle r="50" cx="1152" cy="965"></circle><circle r="6" cx="851" cy="14"></circle><circle r="1" cx="11" cy="129"></circle><circle r="26" cx="1058" cy="685"></circle><circle r="48" cx="997" cy="322"></circle><circle r="31" cx="32" cy="736"></circle><circle r="46" cx="1915" cy="342"></circle><circle r="11" cx="1447" cy="897"></circle><circle r="25" cx="1291" cy="749"></circle><circle r="39" cx="554" cy="1050"></circle><circle r="49" cx="1668" cy="283"></circle><circle r="51" cx="880" cy="178"></circle><circle r="38" cx="304" cy="763"></circle><circle r="47" cx="741" cy="829"></circle><circle r="24" cx="1494" cy="1063"></circle><circle r="24" cx="755" cy="130"></circle><circle r="45" cx="1697" cy="668"></circle><circle r="35" cx="997" cy="202"></circle><circle r="22" cx="441" cy="293"></circle><circle r="21" cx="1214" cy="855"></circle><circle r="25" cx="1445" cy="377"></circle><circle r="18" cx="1652" cy="405"></circle><circle r="28" cx="1766" cy="210"></circle><circle r="8" cx="777" cy="573"></circle><circle r="13" cx="12" cy="349"></circle><circle r="5" cx="1577" cy="773"></circle><circle r="1" cx="508" cy="934"></circle><circle r="33" cx="869" cy="360"></circle><circle r="43" cx="15" cy="614"></circle><circle r="28" cx="1876" cy="451"></circle><circle r="50" cx="1188" cy="1078"></circle><circle r="34" cx="1914" cy="1028"></circle><circle r="37" cx="1706" cy="916"></circle><circle r="47" cx="1277" cy="5"></circle><circle r="28" cx="429" cy="1072"></circle><circle r="6" cx="1856" cy="814"></circle><circle r="19" cx="670" cy="356"></circle><circle r="50" cx="1883" cy="5"></circle><circle r="18" cx="1446" cy="642"></circle><circle r="33" cx="639" cy="775"></circle><circle r="46" cx="1192" cy="548"></circle><circle r="7" cx="1117" cy="7"></circle><circle r="30" cx="292" cy="479"></circle><circle r="18" cx="515" cy="560"></circle><circle r="54" cx="518" cy="411"></circle><circle r="4" cx="1655" cy="45"></circle><circle r="22" cx="1065" cy="1064"></circle></g></svg>