<svg id="visual" viewBox="0 0 1920 1080" width="1920" height="1080" xmlns="http://www.w3.org/2000/svg" xmlns:xlink="http://www.w3.org/1999/xlink" version="1.1"><rect x="0" y="0" width="1920" height="1080" fill="#eeeeee"></rect><path d="M604 0L743 0L743 35L558 35L558 70L610 70L610 105L516 105L516 139L668 139L668 174L494 174L494 209L467 209L467 244L629 244L629 279L712 279L712 314L432 314L432 348L642 348L642 383L529 383L529 418L484 418L484 453L557 453L557 488L745 488L745 523L655 523L655 557L676 557L676 592L660 592L660 627L605 627L605 662L731 662L731 697L645 697L645 732L468 732L468 766L543 766L543 801L535 801L535 836L435 836L435 871L597 871L597 906L524 906L524 941L637 941L637 975L700 975L700 1010L627 1010L627 1045L704 1045L704 1080L0 1080L0 1045L0 1045L0 1010L0 1010L0 975L0 975L0 941L0 941L0 906L0 906L0 871L0 871L0 836L0 836L0 801L0 801L0 766L0 766L0 732L0 732L0 697L0 697L0 662L0 662L0 627L0 627L0 592L0 592L0 557L0 557L0 523L0 523L0 488L0 488L0 453L0 453L0 418L0 418L0 383L0 383L0 348L0 348L0 314L0 314L0 279L0 279L0 244L0 244L0 209L0 209L0 174L0 174L0 139L0 139L0 105L0 105L0 70L0 70L0 35L0 35L0 0L0 0Z" fill="#fc9c08" stroke-linecap="square" stroke-linejoin="miter"></path></svg>