<svg id="visual" viewBox="0 0 1920 1080" width="1920" height="1080" xmlns="http://www.w3.org/2000/svg" xmlns:xlink="http://www.w3.org/1999/xlink" version="1.1"><rect x="0" y="0" width="1920" height="1080" fill="#eeeeee"></rect><path d="M346 0L378.5 5.8C411 11.7 476 23.3 468.5 35C461 46.7 381 58.3 376.3 70C371.7 81.7 442.3 93.3 493.5 104.8C544.7 116.3 576.3 127.7 587.7 139.2C599 150.7 590 162.3 547.5 174C505 185.7 429 197.3 406.8 209C384.7 220.7 416.3 232.3 436.2 244C456 255.7 464 267.3 446.2 279C428.3 290.7 384.7 302.3 408.8 313.8C433 325.3 525 336.7 564 348.2C603 359.7 589 371.3 545.8 383C502.7 394.7 430.3 406.3 425.5 418C420.7 429.7 483.3 441.3 534.7 453C586 464.7 626 476.3 634.7 488C643.3 499.7 620.7 511.3 569.3 522.8C518 534.3 438 545.7 439.8 557.2C441.7 568.7 525.3 580.3 552.5 592C579.7 603.7 550.3 615.3 498.7 627C447 638.7 373 650.3 384 662C395 673.7 491 685.3 504.5 697C518 708.7 449 720.3 418 731.8C387 743.3 394 754.7 423.7 766.2C453.3 777.7 505.7 789.3 519.5 801C533.3 812.7 508.7 824.3 492.3 836C476 847.7 468 859.3 485 871C502 882.7 544 894.3 549.8 906C555.7 917.7 525.3 929.3 487.2 940.8C449 952.3 403 963.7 403.7 975.2C404.3 986.7 451.7 998.3 457.2 1010C462.7 1021.7 426.3 1033.3 430.3 1045C434.3 1056.7 478.7 1068.3 500.8 1074.2L523 1080" fill="none" stroke-linecap="round" stroke-linejoin="miter" stroke="#fc9c08" stroke-width="40"></path></svg>